/* XPM */
static char *nyan[] = {
/* columns rows colors chars-per-pixel */
"25 15 114 2 ",
"   c gray19",
".  c #000057571F1F",
"X  c #000059591919",
"o  c #000066660000",
"O  c #00006B6B0505",
"+  c #00006D6D0707",
"@  c #000062620808",
"#  c #08086B6B0808",
"$  c #000072720C0C",
"%  c #00007A7A1414",
"&  c #00007F7F1919",
"*  c #1F1F79791F1F",
"=  c #00004C4C3333",
"-  c #00006A6A2A2A",
";  c #27277D7D2727",
":  c #000038385D5D",
">  c #000033336666",
",  c #0F0F3F3F6F6F",
"<  c #000043434646",
"1  c #0F0F49495D5D",
"2  c #0F0F44446666",
"3  c #272752527D7D",
"4  c #000066666666",
"5  c #090966666666",
"6  c #282866666666",
"7  c #5F5F5F5F5F5F",
"8  c #4F4F66666666",
"9  c #575766666666",
"0  c #595970707070",
"q  c gray40",
"w  c DimGray",
"e  c #E1E17F7F0808",
"r  c #F1F158583434",
"t  c #000088882222",
"y  c #00008D8D2727",
"u  c #1F1F8C8C3232",
"i  c #0F0F96963636",
"p  c #000099993333",
"a  c #2E2E82822E2E",
"s  c #3A3A89893A3A",
"d  c #0000A0A03A3A",
"f  c #555599995555",
"g  c #5D5D9E9E5D5D",
"h  c #7777A8A87777",
"j  c #ADADB8B80808",
"k  c #AAAAC9C92626",
"l  c #ECECABAB5D5D",
"z  c #C6C6CDCD6363",
"x  c #D9D9CBCB6767",
"c  c #DCDCCFCF7070",
"v  c #404066668C8C",
"b  c #0F0F2C2CFFFF",
"n  c #04045A5AFFFF",
"m  c #79797070FFFF",
"M  c #DFDF2E2EA3A3",
"N  c #E5E55050B2B2",
"B  c #DFDF6767F1F1",
"V  c #6B6B8D8DA9A9",
"C  c #03038787FFFF",
"Z  c #0A0AD5D5FDFD",
"A  c #4040EEEEE6E6",
"S  c #848484848484",
"D  c #8D8D8D8D8D8D",
"F  c #848493939393",
"G  c #979797979797",
"H  c gray60",
"J  c gray62",
"K  c #9292B3B39292",
"L  c #9E9EB3B39E9E",
"P  c #8B8BA2A2B9B9",
"I  c #A0A0A0A0A0A0",
"U  c #A2A2A2A2A2A2",
"Y  c #ABABA8A8A5A5",
"T  c gray69",
"R  c #B6B6B6B6B6B6",
"E  c #B3B3B9B9B9B9",
"W  c gray",
"Q  c #ADADDDDDBBBB",
"!  c #E0E0D9D9A5A5",
"~  c #DBDBE7E7A9A9",
"^  c #90908A8AF6F6",
"/  c #DCDC9E9EE6E6",
"(  c #B4B4C3C3D2D2",
")  c #BFBFCCCCD9D9",
"_  c #B7B7C0C0FFFF",
"`  c #B3B3CECEFFFF",
"'  c #B3B3DBDBFFFF",
"]  c #8383F4F4EFEF",
"[  c #B6B6F3F3FFFF",
"{  c #C5C5C3C3C1C1",
"}  c gray78",
"|  c gray80",
" . c #D3D3D0D0CDCD",
".. c #C1C1DADADADA",
"X. c #D5D5D5D5D5D5",
"o. c #DFDFD9D9D3D3",
"O. c #D4D4DADADADA",
"+. c gray85",
"@. c #DDDDDEDED9D9",
"#. c #FBFBCDCDC2C2",
"$. c #C0C0E1E1CECE",
"%. c #D6D6D4D4FFFF",
"&. c #F7F7CBCBE8E8",
"*. c #DADAE1E1E8E8",
"=. c #E6E6E6E6E6E6",
"-. c #ECECECECECEC",
";. c #FFFFF5F5EBEB",
":. c #E2E2E0E0FFFF",
">. c #F3F3F3F3F3F3",
",. c #F7F7F6F6F3F3",
"<. c #F8F8F4F4F0F0",
"1. c #FDFDF0F0F9F9",
"2. c gray100",
"3. c None",
/* pixels */
"Q Q Q Q Q Q $.) ) ) ) ) ) ) ) ) ) ) )  .3.3.3.3.3.",
"A A A A A ] V > < = = = = = = = = = : 3 { 3.3.3.3.",
"Z Z Z Z Z [ , < o o o o d o p + o o X > P 3.3.3.3.",
"C C C C C ' 1 o p + o o o o ; s @ $ O . P 3.3.3.3.",
"n n n n n ` 1 o o o o o o a L T f t + . P 3.T 3.3.",
"b b b b b _ 1 o o o o p + g U w U f @ . P U w W 3.",
"^ +.+.:.m %.1 o o % o o o g U q q U O.O.J q q T 3.",
"-.D q T X.2.1 o o y o o i K S q q q q q q q q D 3.",
"B / +.+.R +.1 t & o o o u } q 7 7 G q q q   E q +.",
"M M M N &.1.1 o o o $ + * } 9 0 @.J q S H { E 8 O.",
"r r r r r #.2 . t + % % * } 6 5 V w q J q U 8 4 ..",
"e e e e l ;., : - o o o # h F 8 J -.+.>.o.;.q F 3.",
"j j j z X.+.*.v v v v v v v ( J D D D D D D Y 3.3.",
"k k k +.q J ~ =.T <.3.3.3.3.;.W | 3.3.T +.3.3.3.3.",
"x x x ,.+.! c ! +.3.3.3.3.3.3.o.=.3.3.+.-.3.3.3.3."
};
